<mxfile host="Electron" agent="Mozilla/5.0 (Windows NT 10.0; Win64; x64) AppleWebKit/537.36 (KHTML, like Gecko) draw.io/26.2.2 Chrome/134.0.6998.178 Electron/35.1.2 Safari/537.36" version="26.2.2" pages="3">
  <diagram name="TOR" id="tsDk1Zv3AUzvS-3ygFg_">
    <mxGraphModel dx="874" dy="537" grid="1" gridSize="10" guides="1" tooltips="1" connect="1" arrows="1" fold="1" page="1" pageScale="1" pageWidth="850" pageHeight="1100" math="0" shadow="0">
      <root>
        <mxCell id="0" />
        <mxCell id="1" parent="0" />
        <mxCell id="NHa83j0hC07PWSTLQEqM-1" value="&lt;font size=&quot;3&quot;&gt;&lt;b&gt;&amp;lt;&lt;/b&gt;&lt;/font&gt;" style="ellipse;whiteSpace=wrap;html=1;aspect=fixed;" parent="1" vertex="1">
          <mxGeometry x="350" y="430" width="50" height="50" as="geometry" />
        </mxCell>
        <mxCell id="NHa83j0hC07PWSTLQEqM-26" style="edgeStyle=orthogonalEdgeStyle;rounded=0;orthogonalLoop=1;jettySize=auto;html=1;entryX=0.5;entryY=0;entryDx=0;entryDy=0;" parent="1" source="NHa83j0hC07PWSTLQEqM-2" target="NHa83j0hC07PWSTLQEqM-1" edge="1">
          <mxGeometry relative="1" as="geometry" />
        </mxCell>
        <mxCell id="NHa83j0hC07PWSTLQEqM-2" value="&lt;font size=&quot;3&quot;&gt;&lt;b&gt;-&lt;/b&gt;&lt;/font&gt;" style="ellipse;whiteSpace=wrap;html=1;aspect=fixed;" parent="1" vertex="1">
          <mxGeometry x="230" y="350" width="50" height="50" as="geometry" />
        </mxCell>
        <mxCell id="NHa83j0hC07PWSTLQEqM-21" value="" style="edgeStyle=orthogonalEdgeStyle;rounded=0;orthogonalLoop=1;jettySize=auto;html=1;entryX=0.5;entryY=0;entryDx=0;entryDy=0;" parent="1" source="NHa83j0hC07PWSTLQEqM-3" target="NHa83j0hC07PWSTLQEqM-2" edge="1">
          <mxGeometry relative="1" as="geometry">
            <mxPoint x="260" y="295" as="targetPoint" />
            <Array as="points">
              <mxPoint x="255" y="295" />
            </Array>
          </mxGeometry>
        </mxCell>
        <mxCell id="NHa83j0hC07PWSTLQEqM-3" value="&lt;b&gt;&lt;font style=&quot;font-size: 14px;&quot;&gt;+&lt;/font&gt;&lt;/b&gt;" style="ellipse;whiteSpace=wrap;html=1;aspect=fixed;" parent="1" vertex="1">
          <mxGeometry x="110" y="270" width="50" height="50" as="geometry" />
        </mxCell>
        <mxCell id="NHa83j0hC07PWSTLQEqM-22" style="edgeStyle=orthogonalEdgeStyle;rounded=0;orthogonalLoop=1;jettySize=auto;html=1;entryX=0;entryY=0.25;entryDx=0;entryDy=0;entryPerimeter=0;" parent="1" source="NHa83j0hC07PWSTLQEqM-4" target="NHa83j0hC07PWSTLQEqM-5" edge="1">
          <mxGeometry relative="1" as="geometry">
            <mxPoint x="340" y="240" as="targetPoint" />
            <Array as="points">
              <mxPoint x="341" y="145" />
              <mxPoint x="341" y="220" />
            </Array>
          </mxGeometry>
        </mxCell>
        <mxCell id="NHa83j0hC07PWSTLQEqM-4" value="&lt;b&gt;&lt;font style=&quot;font-size: 14px;&quot;&gt;&amp;lt;=&lt;/font&gt;&lt;/b&gt;" style="ellipse;whiteSpace=wrap;html=1;aspect=fixed;" parent="1" vertex="1">
          <mxGeometry x="190" y="120" width="50" height="50" as="geometry" />
        </mxCell>
        <mxCell id="yY5TYWJ1XK0e9b_ygNeb-2" style="edgeStyle=orthogonalEdgeStyle;rounded=0;orthogonalLoop=1;jettySize=auto;html=1;" parent="1" source="NHa83j0hC07PWSTLQEqM-5" target="yY5TYWJ1XK0e9b_ygNeb-1" edge="1">
          <mxGeometry relative="1" as="geometry" />
        </mxCell>
        <mxCell id="NHa83j0hC07PWSTLQEqM-5" value="" style="shape=or;whiteSpace=wrap;html=1;" parent="1" vertex="1">
          <mxGeometry x="480" y="200" width="60" height="80" as="geometry" />
        </mxCell>
        <mxCell id="NHa83j0hC07PWSTLQEqM-6" value="addr&lt;div&gt;&lt;br&gt;&lt;/div&gt;" style="text;html=1;align=center;verticalAlign=middle;resizable=0;points=[];autosize=1;strokeColor=none;fillColor=none;" parent="1" vertex="1">
          <mxGeometry x="80" y="170" width="50" height="40" as="geometry" />
        </mxCell>
        <mxCell id="NHa83j0hC07PWSTLQEqM-8" value="" style="endArrow=classic;html=1;rounded=0;entryX=0.5;entryY=0;entryDx=0;entryDy=0;exitX=0.969;exitY=0.364;exitDx=0;exitDy=0;exitPerimeter=0;" parent="1" source="NHa83j0hC07PWSTLQEqM-9" target="NHa83j0hC07PWSTLQEqM-4" edge="1">
          <mxGeometry width="50" height="50" relative="1" as="geometry">
            <mxPoint x="150" y="100" as="sourcePoint" />
            <mxPoint x="260" y="10" as="targetPoint" />
            <Array as="points">
              <mxPoint x="215" y="100" />
            </Array>
          </mxGeometry>
        </mxCell>
        <mxCell id="NHa83j0hC07PWSTLQEqM-9" value="addr_n_plus_1" style="text;html=1;align=center;verticalAlign=middle;resizable=0;points=[];autosize=1;strokeColor=none;fillColor=none;" parent="1" vertex="1">
          <mxGeometry x="85" y="88" width="70" height="30" as="geometry" />
        </mxCell>
        <mxCell id="NHa83j0hC07PWSTLQEqM-10" value="" style="endArrow=classic;html=1;rounded=0;entryX=0.5;entryY=1;entryDx=0;entryDy=0;exitX=1.038;exitY=0.496;exitDx=0;exitDy=0;exitPerimeter=0;" parent="1" source="NHa83j0hC07PWSTLQEqM-6" target="NHa83j0hC07PWSTLQEqM-4" edge="1">
          <mxGeometry width="50" height="50" relative="1" as="geometry">
            <mxPoint x="215" y="230" as="sourcePoint" />
            <mxPoint x="220" y="180" as="targetPoint" />
            <Array as="points">
              <mxPoint x="215" y="190" />
            </Array>
          </mxGeometry>
        </mxCell>
        <mxCell id="NHa83j0hC07PWSTLQEqM-11" value="" style="endArrow=none;html=1;rounded=0;" parent="1" edge="1">
          <mxGeometry width="50" height="50" relative="1" as="geometry">
            <mxPoint x="160" y="200" as="sourcePoint" />
            <mxPoint x="175" y="185" as="targetPoint" />
          </mxGeometry>
        </mxCell>
        <mxCell id="NHa83j0hC07PWSTLQEqM-12" value="" style="endArrow=none;html=1;rounded=0;" parent="1" edge="1">
          <mxGeometry width="50" height="50" relative="1" as="geometry">
            <mxPoint x="180" y="108" as="sourcePoint" />
            <mxPoint x="190" y="90" as="targetPoint" />
          </mxGeometry>
        </mxCell>
        <mxCell id="NHa83j0hC07PWSTLQEqM-13" value="32" style="text;html=1;align=center;verticalAlign=middle;resizable=0;points=[];autosize=1;strokeColor=none;fillColor=none;" parent="1" vertex="1">
          <mxGeometry x="160" y="68" width="40" height="30" as="geometry" />
        </mxCell>
        <mxCell id="NHa83j0hC07PWSTLQEqM-14" value="32" style="text;html=1;align=center;verticalAlign=middle;resizable=0;points=[];autosize=1;strokeColor=none;fillColor=none;" parent="1" vertex="1">
          <mxGeometry x="140" y="158" width="40" height="30" as="geometry" />
        </mxCell>
        <mxCell id="NHa83j0hC07PWSTLQEqM-17" value="" style="edgeStyle=orthogonalEdgeStyle;rounded=0;orthogonalLoop=1;jettySize=auto;html=1;" parent="1" source="NHa83j0hC07PWSTLQEqM-16" target="NHa83j0hC07PWSTLQEqM-3" edge="1">
          <mxGeometry relative="1" as="geometry">
            <Array as="points">
              <mxPoint x="135" y="250" />
            </Array>
          </mxGeometry>
        </mxCell>
        <mxCell id="NHa83j0hC07PWSTLQEqM-16" value="addr" style="text;html=1;align=center;verticalAlign=middle;resizable=0;points=[];autosize=1;strokeColor=none;fillColor=none;" parent="1" vertex="1">
          <mxGeometry x="35" y="238" width="50" height="30" as="geometry" />
        </mxCell>
        <mxCell id="NHa83j0hC07PWSTLQEqM-19" value="" style="edgeStyle=orthogonalEdgeStyle;rounded=0;orthogonalLoop=1;jettySize=auto;html=1;" parent="1" source="NHa83j0hC07PWSTLQEqM-18" target="NHa83j0hC07PWSTLQEqM-3" edge="1">
          <mxGeometry relative="1" as="geometry" />
        </mxCell>
        <mxCell id="NHa83j0hC07PWSTLQEqM-18" value="size" style="text;html=1;align=center;verticalAlign=middle;resizable=0;points=[];autosize=1;strokeColor=none;fillColor=none;" parent="1" vertex="1">
          <mxGeometry x="30" y="338" width="40" height="30" as="geometry" />
        </mxCell>
        <mxCell id="NHa83j0hC07PWSTLQEqM-24" value="" style="edgeStyle=orthogonalEdgeStyle;rounded=0;orthogonalLoop=1;jettySize=auto;html=1;" parent="1" source="NHa83j0hC07PWSTLQEqM-23" target="NHa83j0hC07PWSTLQEqM-2" edge="1">
          <mxGeometry relative="1" as="geometry" />
        </mxCell>
        <mxCell id="NHa83j0hC07PWSTLQEqM-23" value="1" style="text;html=1;align=center;verticalAlign=middle;resizable=0;points=[];autosize=1;strokeColor=none;fillColor=none;" parent="1" vertex="1">
          <mxGeometry x="240" y="440" width="30" height="30" as="geometry" />
        </mxCell>
        <mxCell id="NHa83j0hC07PWSTLQEqM-28" style="edgeStyle=orthogonalEdgeStyle;rounded=0;orthogonalLoop=1;jettySize=auto;html=1;entryX=0.5;entryY=1;entryDx=0;entryDy=0;" parent="1" source="NHa83j0hC07PWSTLQEqM-27" target="NHa83j0hC07PWSTLQEqM-1" edge="1">
          <mxGeometry relative="1" as="geometry" />
        </mxCell>
        <mxCell id="NHa83j0hC07PWSTLQEqM-27" value="addr_n_plus" style="text;html=1;align=center;verticalAlign=middle;resizable=0;points=[];autosize=1;strokeColor=none;fillColor=none;" parent="1" vertex="1">
          <mxGeometry x="190" y="490" width="60" height="30" as="geometry" />
        </mxCell>
        <mxCell id="NHa83j0hC07PWSTLQEqM-29" style="edgeStyle=orthogonalEdgeStyle;rounded=0;orthogonalLoop=1;jettySize=auto;html=1;entryX=0;entryY=0.75;entryDx=0;entryDy=0;entryPerimeter=0;" parent="1" source="NHa83j0hC07PWSTLQEqM-1" target="NHa83j0hC07PWSTLQEqM-5" edge="1">
          <mxGeometry relative="1" as="geometry" />
        </mxCell>
        <mxCell id="YH7NFlKMQgh-JGmT-S2l-1" value="32" style="text;html=1;align=center;verticalAlign=middle;resizable=0;points=[];autosize=1;strokeColor=none;fillColor=none;" parent="1" vertex="1">
          <mxGeometry x="100" y="218" width="40" height="30" as="geometry" />
        </mxCell>
        <mxCell id="YH7NFlKMQgh-JGmT-S2l-2" value="5" style="text;html=1;align=center;verticalAlign=middle;resizable=0;points=[];autosize=1;strokeColor=none;fillColor=none;" parent="1" vertex="1">
          <mxGeometry x="95" y="348" width="30" height="30" as="geometry" />
        </mxCell>
        <mxCell id="YH7NFlKMQgh-JGmT-S2l-4" value="" style="endArrow=none;html=1;rounded=0;" parent="1" edge="1">
          <mxGeometry width="50" height="50" relative="1" as="geometry">
            <mxPoint x="115" y="256" as="sourcePoint" />
            <mxPoint x="125" y="238" as="targetPoint" />
          </mxGeometry>
        </mxCell>
        <mxCell id="YH7NFlKMQgh-JGmT-S2l-5" value="" style="endArrow=none;html=1;rounded=0;" parent="1" edge="1">
          <mxGeometry width="50" height="50" relative="1" as="geometry">
            <mxPoint x="95" y="366" as="sourcePoint" />
            <mxPoint x="105" y="348" as="targetPoint" />
          </mxGeometry>
        </mxCell>
        <mxCell id="yY5TYWJ1XK0e9b_ygNeb-1" value="tor_out" style="text;html=1;align=center;verticalAlign=middle;resizable=0;points=[];autosize=1;strokeColor=none;fillColor=none;" parent="1" vertex="1">
          <mxGeometry x="590" y="225" width="60" height="30" as="geometry" />
        </mxCell>
      </root>
    </mxGraphModel>
  </diagram>
  <diagram id="psPZwj7sA13qjRXJ49nh" name="TOR_0">
    <mxGraphModel dx="874" dy="537" grid="1" gridSize="10" guides="1" tooltips="1" connect="1" arrows="1" fold="1" page="1" pageScale="1" pageWidth="850" pageHeight="1100" math="0" shadow="0">
      <root>
        <mxCell id="0" />
        <mxCell id="1" parent="0" />
        <mxCell id="H_c3aR0tnv6GzAMC2LRx-1" value="&lt;font size=&quot;3&quot;&gt;&lt;b&gt;&amp;lt;&lt;/b&gt;&lt;/font&gt;" style="ellipse;whiteSpace=wrap;html=1;aspect=fixed;" parent="1" vertex="1">
          <mxGeometry x="350" y="430" width="50" height="50" as="geometry" />
        </mxCell>
        <mxCell id="H_c3aR0tnv6GzAMC2LRx-2" style="edgeStyle=orthogonalEdgeStyle;rounded=0;orthogonalLoop=1;jettySize=auto;html=1;entryX=0.5;entryY=0;entryDx=0;entryDy=0;" parent="1" source="H_c3aR0tnv6GzAMC2LRx-3" target="H_c3aR0tnv6GzAMC2LRx-1" edge="1">
          <mxGeometry relative="1" as="geometry" />
        </mxCell>
        <mxCell id="H_c3aR0tnv6GzAMC2LRx-3" value="&lt;font size=&quot;3&quot;&gt;&lt;b&gt;-&lt;/b&gt;&lt;/font&gt;" style="ellipse;whiteSpace=wrap;html=1;aspect=fixed;" parent="1" vertex="1">
          <mxGeometry x="230" y="350" width="50" height="50" as="geometry" />
        </mxCell>
        <mxCell id="H_c3aR0tnv6GzAMC2LRx-4" value="" style="edgeStyle=orthogonalEdgeStyle;rounded=0;orthogonalLoop=1;jettySize=auto;html=1;entryX=0.5;entryY=0;entryDx=0;entryDy=0;" parent="1" source="H_c3aR0tnv6GzAMC2LRx-5" target="H_c3aR0tnv6GzAMC2LRx-3" edge="1">
          <mxGeometry relative="1" as="geometry">
            <mxPoint x="260" y="295" as="targetPoint" />
            <Array as="points">
              <mxPoint x="255" y="295" />
            </Array>
          </mxGeometry>
        </mxCell>
        <mxCell id="H_c3aR0tnv6GzAMC2LRx-5" value="&lt;b&gt;&lt;font style=&quot;font-size: 14px;&quot;&gt;+&lt;/font&gt;&lt;/b&gt;" style="ellipse;whiteSpace=wrap;html=1;aspect=fixed;" parent="1" vertex="1">
          <mxGeometry x="110" y="270" width="50" height="50" as="geometry" />
        </mxCell>
        <mxCell id="H_c3aR0tnv6GzAMC2LRx-17" value="" style="edgeStyle=orthogonalEdgeStyle;rounded=0;orthogonalLoop=1;jettySize=auto;html=1;" parent="1" source="H_c3aR0tnv6GzAMC2LRx-18" target="H_c3aR0tnv6GzAMC2LRx-5" edge="1">
          <mxGeometry relative="1" as="geometry">
            <Array as="points">
              <mxPoint x="135" y="250" />
            </Array>
          </mxGeometry>
        </mxCell>
        <mxCell id="H_c3aR0tnv6GzAMC2LRx-18" value="addr" style="text;html=1;align=center;verticalAlign=middle;resizable=0;points=[];autosize=1;strokeColor=none;fillColor=none;" parent="1" vertex="1">
          <mxGeometry x="35" y="238" width="50" height="30" as="geometry" />
        </mxCell>
        <mxCell id="H_c3aR0tnv6GzAMC2LRx-19" value="" style="edgeStyle=orthogonalEdgeStyle;rounded=0;orthogonalLoop=1;jettySize=auto;html=1;" parent="1" source="NOC4wCNKYK76c-hGhj1T-1" target="H_c3aR0tnv6GzAMC2LRx-5" edge="1">
          <mxGeometry relative="1" as="geometry">
            <mxPoint x="70" y="353" as="sourcePoint" />
          </mxGeometry>
        </mxCell>
        <mxCell id="H_c3aR0tnv6GzAMC2LRx-20" value="" style="edgeStyle=orthogonalEdgeStyle;rounded=0;orthogonalLoop=1;jettySize=auto;html=1;" parent="1" source="H_c3aR0tnv6GzAMC2LRx-21" target="H_c3aR0tnv6GzAMC2LRx-3" edge="1">
          <mxGeometry relative="1" as="geometry" />
        </mxCell>
        <mxCell id="H_c3aR0tnv6GzAMC2LRx-21" value="1" style="text;html=1;align=center;verticalAlign=middle;resizable=0;points=[];autosize=1;strokeColor=none;fillColor=none;" parent="1" vertex="1">
          <mxGeometry x="240" y="440" width="30" height="30" as="geometry" />
        </mxCell>
        <mxCell id="H_c3aR0tnv6GzAMC2LRx-22" style="edgeStyle=orthogonalEdgeStyle;rounded=0;orthogonalLoop=1;jettySize=auto;html=1;entryX=0.5;entryY=1;entryDx=0;entryDy=0;" parent="1" source="H_c3aR0tnv6GzAMC2LRx-23" target="H_c3aR0tnv6GzAMC2LRx-1" edge="1">
          <mxGeometry relative="1" as="geometry" />
        </mxCell>
        <mxCell id="H_c3aR0tnv6GzAMC2LRx-23" value="addr_n_plus" style="text;html=1;align=center;verticalAlign=middle;resizable=0;points=[];autosize=1;strokeColor=none;fillColor=none;" parent="1" vertex="1">
          <mxGeometry x="190" y="490" width="60" height="30" as="geometry" />
        </mxCell>
        <mxCell id="H_c3aR0tnv6GzAMC2LRx-24" style="edgeStyle=orthogonalEdgeStyle;rounded=0;orthogonalLoop=1;jettySize=auto;html=1;" parent="1" source="H_c3aR0tnv6GzAMC2LRx-1" edge="1">
          <mxGeometry relative="1" as="geometry">
            <mxPoint x="550" y="455" as="targetPoint" />
          </mxGeometry>
        </mxCell>
        <mxCell id="ycTb6axQVCicDDGi--XB-1" value="&lt;span style=&quot;font-size: 12px; background-color: rgb(236, 236, 236);&quot;&gt;tor0_out&lt;/span&gt;" style="edgeLabel;html=1;align=center;verticalAlign=middle;resizable=0;points=[];" vertex="1" connectable="0" parent="H_c3aR0tnv6GzAMC2LRx-24">
          <mxGeometry x="0.681" y="-1" relative="1" as="geometry">
            <mxPoint y="14" as="offset" />
          </mxGeometry>
        </mxCell>
        <mxCell id="NOC4wCNKYK76c-hGhj1T-1" value="size" style="text;html=1;align=center;verticalAlign=middle;resizable=0;points=[];autosize=1;strokeColor=none;fillColor=none;" parent="1" vertex="1">
          <mxGeometry x="30" y="338" width="40" height="30" as="geometry" />
        </mxCell>
        <mxCell id="NOC4wCNKYK76c-hGhj1T-2" value="" style="endArrow=none;html=1;rounded=0;" parent="1" edge="1">
          <mxGeometry width="50" height="50" relative="1" as="geometry">
            <mxPoint x="100" y="363" as="sourcePoint" />
            <mxPoint x="110" y="343" as="targetPoint" />
          </mxGeometry>
        </mxCell>
        <mxCell id="NOC4wCNKYK76c-hGhj1T-3" value="" style="endArrow=none;html=1;rounded=0;" parent="1" edge="1">
          <mxGeometry width="50" height="50" relative="1" as="geometry">
            <mxPoint x="100" y="264" as="sourcePoint" />
            <mxPoint x="110" y="242" as="targetPoint" />
          </mxGeometry>
        </mxCell>
        <mxCell id="NOC4wCNKYK76c-hGhj1T-4" value="32" style="text;html=1;align=center;verticalAlign=middle;resizable=0;points=[];autosize=1;strokeColor=none;fillColor=none;" parent="1" vertex="1">
          <mxGeometry x="100" y="218" width="40" height="30" as="geometry" />
        </mxCell>
        <mxCell id="NOC4wCNKYK76c-hGhj1T-5" value="5" style="text;html=1;align=center;verticalAlign=middle;resizable=0;points=[];autosize=1;strokeColor=none;fillColor=none;" parent="1" vertex="1">
          <mxGeometry x="95" y="348" width="30" height="30" as="geometry" />
        </mxCell>
      </root>
    </mxGraphModel>
  </diagram>
  <diagram id="bfJARUBBdj9bVe0Fruuw" name="NA4">
    <mxGraphModel dx="880" dy="532" grid="1" gridSize="10" guides="1" tooltips="1" connect="1" arrows="1" fold="1" page="1" pageScale="1" pageWidth="850" pageHeight="1100" math="0" shadow="0">
      <root>
        <mxCell id="0" />
        <mxCell id="1" parent="0" />
        <mxCell id="lr0UjWpc25uCHrw42DMR-1" value="&lt;font size=&quot;3&quot;&gt;&lt;b&gt;&amp;lt;&lt;/b&gt;&lt;/font&gt;" style="ellipse;whiteSpace=wrap;html=1;aspect=fixed;" parent="1" vertex="1">
          <mxGeometry x="300" y="380" width="50" height="50" as="geometry" />
        </mxCell>
        <mxCell id="lr0UjWpc25uCHrw42DMR-2" style="edgeStyle=orthogonalEdgeStyle;rounded=0;orthogonalLoop=1;jettySize=auto;html=1;entryX=0.5;entryY=0;entryDx=0;entryDy=0;" parent="1" source="lr0UjWpc25uCHrw42DMR-3" target="lr0UjWpc25uCHrw42DMR-1" edge="1">
          <mxGeometry relative="1" as="geometry" />
        </mxCell>
        <mxCell id="lr0UjWpc25uCHrw42DMR-3" value="&lt;font size=&quot;3&quot;&gt;&lt;b&gt;-&lt;/b&gt;&lt;/font&gt;" style="ellipse;whiteSpace=wrap;html=1;aspect=fixed;" parent="1" vertex="1">
          <mxGeometry x="230" y="320" width="50" height="50" as="geometry" />
        </mxCell>
        <mxCell id="lr0UjWpc25uCHrw42DMR-4" value="" style="edgeStyle=orthogonalEdgeStyle;rounded=0;orthogonalLoop=1;jettySize=auto;html=1;entryX=0.5;entryY=0;entryDx=0;entryDy=0;" parent="1" source="lr0UjWpc25uCHrw42DMR-5" target="lr0UjWpc25uCHrw42DMR-3" edge="1">
          <mxGeometry relative="1" as="geometry">
            <mxPoint x="260" y="295" as="targetPoint" />
            <Array as="points">
              <mxPoint x="255" y="265" />
            </Array>
          </mxGeometry>
        </mxCell>
        <mxCell id="lr0UjWpc25uCHrw42DMR-5" value="&lt;b&gt;&lt;font style=&quot;font-size: 14px;&quot;&gt;+&lt;/font&gt;&lt;/b&gt;" style="ellipse;whiteSpace=wrap;html=1;aspect=fixed;" parent="1" vertex="1">
          <mxGeometry x="190" y="240" width="50" height="50" as="geometry" />
        </mxCell>
        <mxCell id="lr0UjWpc25uCHrw42DMR-6" style="edgeStyle=orthogonalEdgeStyle;rounded=0;orthogonalLoop=1;jettySize=auto;html=1;entryX=0;entryY=0.25;entryDx=0;entryDy=0;entryPerimeter=0;" parent="1" source="lr0UjWpc25uCHrw42DMR-7" target="lr0UjWpc25uCHrw42DMR-8" edge="1">
          <mxGeometry relative="1" as="geometry">
            <mxPoint x="340" y="240" as="targetPoint" />
            <Array as="points">
              <mxPoint x="341" y="145" />
              <mxPoint x="341" y="220" />
            </Array>
          </mxGeometry>
        </mxCell>
        <mxCell id="lr0UjWpc25uCHrw42DMR-7" value="&lt;b&gt;&lt;font style=&quot;font-size: 14px;&quot;&gt;&amp;lt;=&lt;/font&gt;&lt;/b&gt;" style="ellipse;whiteSpace=wrap;html=1;aspect=fixed;" parent="1" vertex="1">
          <mxGeometry x="190" y="120" width="50" height="50" as="geometry" />
        </mxCell>
        <mxCell id="lr0UjWpc25uCHrw42DMR-8" value="" style="shape=or;whiteSpace=wrap;html=1;" parent="1" vertex="1">
          <mxGeometry x="480" y="200" width="60" height="80" as="geometry" />
        </mxCell>
        <mxCell id="lr0UjWpc25uCHrw42DMR-36" style="edgeStyle=orthogonalEdgeStyle;rounded=0;orthogonalLoop=1;jettySize=auto;html=1;entryX=0.5;entryY=0;entryDx=0;entryDy=0;" parent="1" source="lr0UjWpc25uCHrw42DMR-9" target="lr0UjWpc25uCHrw42DMR-5" edge="1">
          <mxGeometry relative="1" as="geometry" />
        </mxCell>
        <mxCell id="lr0UjWpc25uCHrw42DMR-9" value="addr&lt;div&gt;&lt;br&gt;&lt;/div&gt;" style="text;html=1;align=center;verticalAlign=middle;resizable=0;points=[];autosize=1;strokeColor=none;fillColor=none;" parent="1" vertex="1">
          <mxGeometry x="85" y="188" width="50" height="40" as="geometry" />
        </mxCell>
        <mxCell id="lr0UjWpc25uCHrw42DMR-44" style="edgeStyle=orthogonalEdgeStyle;rounded=0;orthogonalLoop=1;jettySize=auto;html=1;entryX=1;entryY=0.5;entryDx=0;entryDy=0;" parent="1" source="lr0UjWpc25uCHrw42DMR-11" target="lr0UjWpc25uCHrw42DMR-39" edge="1">
          <mxGeometry relative="1" as="geometry">
            <Array as="points">
              <mxPoint x="370" y="100" />
              <mxPoint x="370" y="495" />
            </Array>
          </mxGeometry>
        </mxCell>
        <mxCell id="lr0UjWpc25uCHrw42DMR-11" value="addrN" style="text;html=1;align=center;verticalAlign=middle;resizable=0;points=[];autosize=1;strokeColor=none;fillColor=none;" parent="1" vertex="1">
          <mxGeometry x="90" y="88" width="60" height="30" as="geometry" />
        </mxCell>
        <mxCell id="lr0UjWpc25uCHrw42DMR-12" value="" style="endArrow=classic;html=1;rounded=0;entryX=0.5;entryY=1;entryDx=0;entryDy=0;exitX=1.038;exitY=0.496;exitDx=0;exitDy=0;exitPerimeter=0;" parent="1" source="lr0UjWpc25uCHrw42DMR-9" target="lr0UjWpc25uCHrw42DMR-7" edge="1">
          <mxGeometry width="50" height="50" relative="1" as="geometry">
            <mxPoint x="215" y="230" as="sourcePoint" />
            <mxPoint x="220" y="180" as="targetPoint" />
            <Array as="points">
              <mxPoint x="200" y="208" />
              <mxPoint x="215" y="208" />
            </Array>
          </mxGeometry>
        </mxCell>
        <mxCell id="lr0UjWpc25uCHrw42DMR-13" value="" style="endArrow=none;html=1;rounded=0;" parent="1" edge="1">
          <mxGeometry width="50" height="50" relative="1" as="geometry">
            <mxPoint x="170" y="215" as="sourcePoint" />
            <mxPoint x="185" y="200" as="targetPoint" />
          </mxGeometry>
        </mxCell>
        <mxCell id="lr0UjWpc25uCHrw42DMR-14" value="" style="endArrow=none;html=1;rounded=0;" parent="1" edge="1">
          <mxGeometry width="50" height="50" relative="1" as="geometry">
            <mxPoint x="180" y="108" as="sourcePoint" />
            <mxPoint x="190" y="90" as="targetPoint" />
          </mxGeometry>
        </mxCell>
        <mxCell id="lr0UjWpc25uCHrw42DMR-15" value="32" style="text;html=1;align=center;verticalAlign=middle;resizable=0;points=[];autosize=1;strokeColor=none;fillColor=none;" parent="1" vertex="1">
          <mxGeometry x="145" y="180" width="40" height="30" as="geometry" />
        </mxCell>
        <mxCell id="lr0UjWpc25uCHrw42DMR-19" value="" style="edgeStyle=orthogonalEdgeStyle;rounded=0;orthogonalLoop=1;jettySize=auto;html=1;" parent="1" source="lr0UjWpc25uCHrw42DMR-20" target="lr0UjWpc25uCHrw42DMR-3" edge="1">
          <mxGeometry relative="1" as="geometry" />
        </mxCell>
        <mxCell id="lr0UjWpc25uCHrw42DMR-20" value="1" style="text;html=1;align=center;verticalAlign=middle;resizable=0;points=[];autosize=1;strokeColor=none;fillColor=none;" parent="1" vertex="1">
          <mxGeometry x="240" y="400" width="30" height="30" as="geometry" />
        </mxCell>
        <mxCell id="lr0UjWpc25uCHrw42DMR-23" style="edgeStyle=orthogonalEdgeStyle;rounded=0;orthogonalLoop=1;jettySize=auto;html=1;entryX=0;entryY=0.75;entryDx=0;entryDy=0;entryPerimeter=0;" parent="1" source="lr0UjWpc25uCHrw42DMR-1" target="lr0UjWpc25uCHrw42DMR-8" edge="1">
          <mxGeometry relative="1" as="geometry" />
        </mxCell>
        <mxCell id="lr0UjWpc25uCHrw42DMR-24" value="32" style="text;html=1;align=center;verticalAlign=middle;resizable=0;points=[];autosize=1;strokeColor=none;fillColor=none;" parent="1" vertex="1">
          <mxGeometry x="160" y="70" width="40" height="30" as="geometry" />
        </mxCell>
        <mxCell id="lr0UjWpc25uCHrw42DMR-29" value="na4_out" style="text;html=1;align=center;verticalAlign=middle;resizable=0;points=[];autosize=1;strokeColor=none;fillColor=none;" parent="1" vertex="1">
          <mxGeometry x="575" y="228" width="70" height="30" as="geometry" />
        </mxCell>
        <mxCell id="lr0UjWpc25uCHrw42DMR-30" style="edgeStyle=orthogonalEdgeStyle;rounded=0;orthogonalLoop=1;jettySize=auto;html=1;entryX=0.093;entryY=0.394;entryDx=0;entryDy=0;entryPerimeter=0;" parent="1" source="lr0UjWpc25uCHrw42DMR-8" target="lr0UjWpc25uCHrw42DMR-29" edge="1">
          <mxGeometry relative="1" as="geometry" />
        </mxCell>
        <mxCell id="lr0UjWpc25uCHrw42DMR-33" style="edgeStyle=orthogonalEdgeStyle;rounded=0;orthogonalLoop=1;jettySize=auto;html=1;entryX=0.5;entryY=1;entryDx=0;entryDy=0;" parent="1" source="lr0UjWpc25uCHrw42DMR-32" target="lr0UjWpc25uCHrw42DMR-5" edge="1">
          <mxGeometry relative="1" as="geometry" />
        </mxCell>
        <mxCell id="lr0UjWpc25uCHrw42DMR-32" value="&amp;nbsp;size" style="text;html=1;align=center;verticalAlign=middle;resizable=0;points=[];autosize=1;strokeColor=none;fillColor=none;" parent="1" vertex="1">
          <mxGeometry x="85" y="298" width="50" height="30" as="geometry" />
        </mxCell>
        <mxCell id="lr0UjWpc25uCHrw42DMR-34" value="" style="endArrow=none;html=1;rounded=0;" parent="1" edge="1">
          <mxGeometry width="50" height="50" relative="1" as="geometry">
            <mxPoint x="160" y="320" as="sourcePoint" />
            <mxPoint x="180" y="300" as="targetPoint" />
          </mxGeometry>
        </mxCell>
        <mxCell id="lr0UjWpc25uCHrw42DMR-35" value="5" style="text;html=1;align=center;verticalAlign=middle;resizable=0;points=[];autosize=1;strokeColor=none;fillColor=none;" parent="1" vertex="1">
          <mxGeometry x="145" y="290" width="30" height="30" as="geometry" />
        </mxCell>
        <mxCell id="lr0UjWpc25uCHrw42DMR-40" style="edgeStyle=orthogonalEdgeStyle;rounded=0;orthogonalLoop=1;jettySize=auto;html=1;entryX=0.5;entryY=1;entryDx=0;entryDy=0;" parent="1" source="lr0UjWpc25uCHrw42DMR-39" target="lr0UjWpc25uCHrw42DMR-1" edge="1">
          <mxGeometry relative="1" as="geometry" />
        </mxCell>
        <mxCell id="lr0UjWpc25uCHrw42DMR-39" value="&lt;b&gt;&lt;font style=&quot;font-size: 14px;&quot;&gt;+&lt;/font&gt;&lt;/b&gt;" style="ellipse;whiteSpace=wrap;html=1;aspect=fixed;" parent="1" vertex="1">
          <mxGeometry x="300" y="470" width="50" height="50" as="geometry" />
        </mxCell>
        <mxCell id="lr0UjWpc25uCHrw42DMR-43" value="" style="edgeStyle=orthogonalEdgeStyle;rounded=0;orthogonalLoop=1;jettySize=auto;html=1;" parent="1" source="lr0UjWpc25uCHrw42DMR-41" target="lr0UjWpc25uCHrw42DMR-39" edge="1">
          <mxGeometry relative="1" as="geometry" />
        </mxCell>
        <mxCell id="lr0UjWpc25uCHrw42DMR-41" value="3" style="text;html=1;align=center;verticalAlign=middle;resizable=0;points=[];autosize=1;strokeColor=none;fillColor=none;" parent="1" vertex="1">
          <mxGeometry x="310" y="550" width="30" height="30" as="geometry" />
        </mxCell>
        <mxCell id="lr0UjWpc25uCHrw42DMR-45" style="edgeStyle=orthogonalEdgeStyle;rounded=0;orthogonalLoop=1;jettySize=auto;html=1;entryX=0.6;entryY=0;entryDx=0;entryDy=0;entryPerimeter=0;" parent="1" source="lr0UjWpc25uCHrw42DMR-11" target="lr0UjWpc25uCHrw42DMR-7" edge="1">
          <mxGeometry relative="1" as="geometry">
            <Array as="points">
              <mxPoint x="220" y="100" />
            </Array>
          </mxGeometry>
        </mxCell>
      </root>
    </mxGraphModel>
  </diagram>
</mxfile>
